<svg xmlns="http://www.w3.org/2000/svg" width="1200" height="800" viewBox="0 0 1200 800">
  <rect width="1200" height="800" fill="#F5F8FF"/>
  <path d="M0 140 C170 70 230 210 400 130 S720 40 920 120 S1090 230 1200 130 L1200 0 L0 0 Z" fill="#2854A4" opacity=".13"/>
  <g stroke="#111827" stroke-width="5" fill="none" opacity=".95">
    <path d="M80 640 C220 520 350 530 470 650"/>
    <path d="M720 650 C840 500 1010 540 1120 625"/>
    <path d="M130 590 L130 345 L310 260 L490 345 L490 590"/>
    <path d="M180 590 L180 385 L310 320 L440 385 L440 590"/>
    <circle cx="935" cy="345" r="130"/>
    <circle cx="935" cy="345" r="8" fill="#111827"/>
    <path d="M935 215 V475 M805 345 H1065 M842 252 L1028 438 M1028 252 L842 438"/>
  </g>
  <g fill="none" stroke="#2854A4" stroke-width="12" stroke-linecap="round" opacity=".85">
    <path d="M90 95 C220 40 340 70 450 40"/>
    <path d="M760 95 C900 45 1030 70 1120 38"/>
  </g>
  <g transform="translate(180 225)">
    <g fill="white" stroke="#111827" stroke-width="5">
      <rect x="0" y="190" width="175" height="260" rx="45"/>
      <circle cx="88" cy="95" r="80"/>
    </g>
    <path d="M35 65 C60 10 135 15 158 62 C115 50 80 54 35 65Z" fill="#111827"/>
    <circle cx="60" cy="95" r="7" fill="#111827"/><circle cx="115" cy="95" r="7" fill="#111827"/>
    <path d="M62 138 C85 155 111 150 124 136" stroke="#111827" stroke-width="5" fill="none"/>
  </g>
  <g transform="translate(505 210)">
    <g fill="white" stroke="#111827" stroke-width="5">
      <rect x="0" y="205" width="180" height="260" rx="45"/>
      <circle cx="90" cy="100" r="83"/>
    </g>
    <path d="M25 70 C60 5 140 17 164 70 C120 48 70 55 25 70Z" fill="#111827"/>
    <rect x="43" y="90" width="42" height="24" rx="8" stroke="#111827" stroke-width="5" fill="none"/><rect x="98" y="90" width="42" height="24" rx="8" stroke="#111827" stroke-width="5" fill="none"/><path d="M85 101 H98" stroke="#111827" stroke-width="5"/>
    <path d="M62 144 C82 154 105 154 126 142" stroke="#111827" stroke-width="5" fill="none"/>
  </g>
  <g transform="translate(830 230)">
    <g fill="white" stroke="#111827" stroke-width="5">
      <rect x="0" y="185" width="175" height="260" rx="45"/>
      <circle cx="88" cy="90" r="78"/>
    </g>
    <path d="M25 62 C70 0 128 20 158 70 C116 45 68 52 25 62Z" fill="#111827"/>
    <circle cx="60" cy="90" r="7" fill="#111827"/><circle cx="112" cy="90" r="7" fill="#111827"/>
    <path d="M60 132 C86 120 110 124 128 139" stroke="#111827" stroke-width="5" fill="none"/>
  </g>
  <rect x="95" y="75" width="1010" height="116" rx="28" fill="white" stroke="#111827" stroke-width="4"/>
  <text x="600" y="125" text-anchor="middle" font-family="Arial Black, Impact, sans-serif" font-size="44" fill="#111827">PANZERINA MILLE</text>
  <text x="600" y="166" text-anchor="middle" font-family="Arial, sans-serif" font-size="28" fill="#2854A4">pillole per trolley diplomatici</text>
</svg>